<svg width="21" height="21" viewBox="0 0 21 21" fill="none" xmlns="http://www.w3.org/2000/svg">
<path d="M16.9963 20.122C16.3697 20.3657 15.6464 20.5358 14.5944 20.5822C13.5384 20.6287 13.2019 20.6402 10.5136 20.6402C7.82533 20.6402 7.48869 20.6287 6.43284 20.5822C5.38061 20.5358 4.66125 20.3657 4.03073 20.122C3.37317 19.8745 2.77362 19.4837 2.27849 18.9809C1.77564 18.4858 1.38506 17.8902 1.13364 17.2249C0.889925 16.5981 0.719641 15.8748 0.673255 14.8228M16.9963 20.122L6.45864 1.39738C7.50373 1.35147 7.83179 1.33984 10.5174 1.33984C13.2032 1.33984 13.5303 1.35148 14.5784 1.40123L14.5801 1.40131C15.5829 1.44552 16.2484 1.60596 16.8237 1.82839L16.8237 1.8284L16.8279 1.82998C17.4172 2.05176 17.9554 2.40233 18.4 2.85391L18.3999 2.85398L18.4069 2.86073C18.8606 3.30405 19.2075 3.83763 19.4336 4.43588L19.4335 4.43589L19.4353 4.44033C19.6572 5.01102 19.8178 5.67987 19.862 6.68325C19.9078 7.72686 19.9118 8.05324 19.9118 10.742C19.9118 13.4276 19.9002 13.7557 19.8543 14.8007C19.8101 15.8035 19.6495 16.4691 19.4272 17.0447C18.9635 18.2438 18.0153 19.192 16.816 19.6556L16.8151 19.656C16.2446 19.8779 15.5757 20.0385 14.5724 20.0827C13.5273 20.1287 13.1993 20.1402 10.5136 20.1402C7.82787 20.1402 7.49978 20.1287 6.45486 20.0827C5.45188 20.0385 4.78649 19.878 4.21101 19.6556L4.20686 19.654C3.61761 19.4322 3.07941 19.0817 2.63476 18.6301L2.6348 18.63L2.6293 18.6246C2.17735 18.1796 1.82695 17.645 1.60135 17.0481L1.60138 17.0481L1.59965 17.0437C1.37771 16.4729 1.21701 15.8041 1.17277 14.8008L0.673255 14.8228M16.9963 20.122C18.327 19.6075 19.3791 18.5554 19.8936 17.2249L16.9963 20.122ZM0.673255 14.8228C0.626869 13.7668 0.615234 13.4303 0.615234 10.742C0.615234 8.05372 0.626869 7.71723 0.677183 6.6573L1.17277 14.8007M0.673255 14.8228L1.17277 14.8007M1.17277 14.8007C1.12686 13.7557 1.11523 13.4276 1.11523 10.742C1.11523 8.0562 1.12687 7.72903 1.17662 6.68101L1.1767 6.67932C1.22091 5.6765 1.38134 5.01111 1.60379 4.43561L1.60381 4.43562L1.60533 4.43157C1.8273 3.84219 2.17777 3.30398 2.6293 2.85937L2.62936 2.85944L2.63612 2.85252C3.07944 2.39879 3.613 2.05192 4.21139 1.82583L4.21139 1.82585M1.17277 14.8007L4.21139 1.82585M4.21139 1.82585L4.21581 1.82413M4.21139 1.82585L4.21581 1.82413M4.21581 1.82413C4.78642 1.60233 5.45528 1.44162 6.45856 1.39738L4.21581 1.82413ZM18.7043 16.7633C18.8588 16.3659 19.0329 15.7902 19.0779 14.7676C19.1248 13.7124 19.1365 13.3944 19.1365 10.7497C19.1365 8.10499 19.1248 7.78327 19.0779 6.72804C19.033 5.71227 18.8598 5.13312 18.7055 4.73559C18.5218 4.24012 18.2318 3.7937 17.8538 3.4231C17.4847 3.04212 17.033 2.75232 16.5393 2.56938C16.1421 2.41522 15.5667 2.24195 14.547 2.19699L18.7043 16.7633ZM18.7043 16.7633C18.3208 17.757 17.5325 18.5453 16.5388 18.9288C16.1412 19.0834 15.5616 19.2575 14.5428 19.3024C13.4877 19.3494 13.1658 19.3609 10.5213 19.3609C7.87706 19.3609 7.55104 19.3494 6.49975 19.3024C6.49961 19.3024 6.49948 19.3024 6.49934 19.3024L18.7043 16.7633ZM3.19256 18.0763C3.56171 18.4573 4.01348 18.7471 4.50707 18.9302L1.96861 14.7716C2.0134 15.7872 2.18661 16.3665 2.34087 16.764C2.5246 17.2593 2.81464 17.7057 3.19256 18.0763ZM1.91009 10.7497C1.91009 13.3942 1.92158 13.7162 1.9686 14.7714L6.50342 2.19699C5.48788 2.24193 4.90858 2.41511 4.51105 2.56937C4.01597 2.75279 3.56987 3.04251 3.1996 3.41998C2.81377 3.78988 2.52387 4.24204 2.34086 4.73559C2.1867 5.13283 2.01342 5.70821 1.96861 6.72788C1.92158 7.77935 1.91009 8.10511 1.91009 10.7497ZM10.5251 2.13848C7.8806 2.13848 7.55868 2.15012 6.50351 2.19699L14.5467 2.19698C13.4954 2.15012 13.1735 2.13848 10.5251 2.13848Z" fill="white" stroke="white"/>
<path d="M5.93164 10.7398C5.93164 8.20768 7.98613 6.15332 10.5181 6.15332C13.0502 6.15332 15.1046 8.20767 15.1046 10.7398C15.1046 13.2719 13.0502 15.3262 10.5181 15.3262C7.98613 15.3262 5.93164 13.2719 5.93164 10.7398ZM6.71864 10.7398C6.71864 12.8378 8.42022 14.5392 10.5181 14.5392C12.6161 14.5392 14.3176 12.8378 14.3176 10.7398C14.3176 8.64174 12.6161 6.94032 10.5181 6.94032C8.42022 6.94032 6.71864 8.64172 6.71864 10.7398Z" fill="white" stroke="white"/>
<path d="M16.4923 5.45259C16.4923 5.83216 16.1844 6.14005 15.8046 6.14005C15.425 6.14005 15.1172 5.8322 15.1172 5.45259C15.1172 5.07287 15.425 4.76514 15.8046 4.76514C16.1845 4.76514 16.4923 5.07291 16.4923 5.45259Z" fill="white" stroke="white"/>
</svg>
