<svg width="21" height="18" viewBox="0 0 21 18" fill="none" xmlns="http://www.w3.org/2000/svg">
<path d="M8.23965 10.3503C8.04676 10.5235 7.92866 10.7648 7.91028 11.0234L7.63636 14.8762C7.61668 15.1531 7.71293 15.4256 7.90209 15.6287C8.09125 15.8318 8.35631 15.9471 8.63384 15.9471C8.98886 15.9471 9.30424 15.8667 9.58644 15.7041C9.81984 15.5696 9.99545 15.3942 10.0869 15.3029C10.0905 15.2994 10.0939 15.2959 10.0972 15.2926L11.3216 14.1225L14.4529 16.4156C14.4861 16.44 14.5209 16.4623 14.5569 16.4823C15.023 16.7421 15.6805 16.9518 16.3368 16.6545C16.9894 16.3589 17.2745 15.7272 17.3973 15.1887L17.3974 15.1887L17.4002 15.1752L19.8927 3.49602C19.8952 3.48584 19.8976 3.47561 19.8998 3.46534C20.0475 2.77712 19.9842 1.99803 19.4268 1.46165C18.8575 0.913754 18.092 0.922692 17.5196 1.13574L17.5196 1.1357L17.5109 1.13903L2.82136 6.76301L2.82136 6.763L2.81705 6.76467C2.50019 6.88767 2.19886 7.04779 1.95551 7.26097C1.71779 7.46922 1.45572 7.80205 1.41527 8.26064C1.37192 8.75209 1.60264 9.1421 1.86657 9.38885C2.11564 9.62169 2.42361 9.76369 2.71148 9.85302C2.71158 9.85305 2.71167 9.85308 2.71177 9.85311C2.71199 9.85318 2.7122 9.85325 2.71242 9.85331L6.46701 11.0211C6.74526 11.1077 7.04742 11.0686 7.29445 10.914L8.34144 10.2589L8.23965 10.3503Z" stroke="white" stroke-width="2" stroke-linejoin="round"/>
</svg>
