<svg width="22" height="21" viewBox="0 0 22 21" fill="none" xmlns="http://www.w3.org/2000/svg">
<path d="M6.84006 17.7741C8.15301 18.5429 9.67621 18.9805 11.3028 18.9805C16.1921 18.9805 20.1661 15.0039 20.1661 10.1153C20.1661 5.22659 16.1921 1.25 11.3028 1.25H11.2988C6.4096 1.25 2.43555 5.22553 2.43555 10.1153C2.43555 11.8653 2.94527 13.502 3.82679 14.8783L3.00461 17.3292L2.37673 19.2009L4.25718 18.5997L6.84006 17.7741ZM14.3491 12.5099C14.5926 12.6275 14.8379 12.7481 14.9959 12.8263C14.9805 12.8879 14.961 12.9542 14.9365 13.0235L15.8794 13.3567L14.9367 13.0229C14.938 13.0193 14.9376 13.0198 14.9346 13.0242C14.9223 13.0421 14.8655 13.1246 14.7012 13.2358C14.5159 13.3612 14.296 13.452 14.1259 13.489C14.0041 13.5149 13.8952 13.5376 13.6386 13.4969C13.4721 13.4705 13.2432 13.4165 12.9239 13.3123C13.1478 13.2478 13.3672 13.125 13.5573 12.9228L13.5573 12.9228L13.5618 12.9179C13.7066 12.7618 13.8657 12.551 14.0118 12.3487C14.1159 12.3978 14.2315 12.4531 14.3491 12.5099ZM8.27143 6.8518C8.30263 6.92742 8.33703 7.01089 8.37321 7.09869C8.5153 7.44346 8.68486 7.85491 8.79581 8.11918C8.77373 8.14344 8.7501 8.16855 8.72046 8.20004C8.71039 8.21074 8.69963 8.22218 8.688 8.23456C8.63034 8.29599 8.55762 8.37445 8.47996 8.46946C8.47939 8.4701 8.47878 8.47079 8.47813 8.47153C8.43915 8.51538 8.2567 8.72069 8.16326 8.99493C8.13426 9.08007 8.1148 9.16535 8.10412 9.25012C8.08549 9.21575 8.06681 9.18023 8.04826 9.14366C7.86078 8.77405 7.73109 8.38286 7.73109 8.04374C7.73109 7.6598 7.82583 7.40725 7.91942 7.23985C8.00946 7.07879 8.10941 6.9727 8.21659 6.86309C8.22803 6.85967 8.24376 6.85592 8.26354 6.85292C8.26614 6.85253 8.26877 6.85216 8.27143 6.8518ZM8.91242 8.38915C8.91236 8.3891 8.91171 8.3877 8.91064 8.38503C8.91195 8.38786 8.91248 8.38919 8.91242 8.38915Z" stroke="white" stroke-width="2"/>
</svg>
