<svg width="87" height="90" viewBox="0 0 87 90" fill="none" xmlns="http://www.w3.org/2000/svg">
<path d="M85.2029 8.19853V16.7883H72.3203V8.19853C72.3203 4.64068 75.2037 1.75586 78.763 1.75586C80.5426 1.75586 82.1529 2.47844 83.3187 3.64421C84.4817 4.80997 85.2029 6.42029 85.2029 8.19853Z" fill="white"/>
<path d="M72.319 68.3242V76.9732C72.2158 83.8645 67.3793 87.5655 62.1286 87.9784H59.8631C54.6096 87.4609 49.769 83.8411 49.769 76.914H12.7893H12.1934V42.5549V10.5603C12.1934 5.69771 16.1352 1.75586 20.9978 1.75586H70.1719H72.319H78.7617C75.2038 1.75586 72.319 4.64068 72.319 8.19853V16.7883V68.3242ZM42.2569 59.7344C42.2569 58.548 41.2948 57.5859 40.1098 57.5859C38.9248 57.5859 37.9627 58.548 37.9627 59.7344C37.9627 60.9194 38.9248 61.8815 40.1098 61.8815C41.2948 61.8801 42.2569 60.9194 42.2569 59.7344Z" fill="white"/>
<path d="M59.8623 87.978H12.7927C7.12902 87.978 2.38477 84.1518 2.38477 76.9136H12.1926H12.7886H49.7668C49.7682 83.8407 54.6088 87.4605 59.8623 87.978Z" fill="white"/>
<path d="M40.11 61.8792C41.2958 61.8792 42.2571 60.9179 42.2571 59.7321C42.2571 58.5463 41.2958 57.585 40.11 57.585C38.9242 57.585 37.9629 58.5463 37.9629 59.7321C37.9629 60.9179 38.9242 61.8792 40.11 61.8792Z" fill="#DCEEFF"/>
<path d="M62.1281 89.0514H59.8626C59.2694 89.0514 58.7891 88.571 58.7891 87.9778C58.7891 87.3846 59.2694 86.9043 59.8626 86.9043H62.0854C66.2571 86.5602 71.1445 83.7538 71.2464 76.9574V16.7863C71.2464 16.1931 71.7267 15.7114 72.3199 15.7114C72.9131 15.7114 73.3935 16.1931 73.3935 16.7863V76.9712C73.2779 84.7214 67.6954 88.6165 62.212 89.0472C62.1818 89.05 62.1556 89.0514 62.1281 89.0514Z" fill="#DCEEFF"/>
<path d="M59.8617 89.0514H12.792C7.07743 89.0514 1.31055 85.2967 1.31055 76.9134C1.31055 76.3202 1.79227 75.8398 2.38409 75.8398H49.7662C50.3608 75.8398 50.8397 76.3202 50.8397 76.9134C50.8397 83.6286 55.756 86.4955 59.9663 86.9098C60.5361 86.9662 60.9614 87.4576 60.9338 88.0315C60.9077 88.6027 60.4342 89.0514 59.8617 89.0514ZM3.49756 77.9856C3.90771 83.4414 7.46418 86.9029 12.792 86.9029H53.6709C53.1024 86.5175 52.5739 86.0881 52.0908 85.6133C50.0979 83.6534 48.9486 81.0314 48.7312 77.9842H3.49756V77.9856Z" fill="#DCEEFF"/>
<path d="M12.1927 77.9855C11.5995 77.9855 11.1191 77.5051 11.1191 76.9133V10.5597C11.1191 5.11347 15.5496 0.681641 20.9972 0.681641H78.761C79.3542 0.681641 79.8346 1.16198 79.8346 1.75381C79.8346 2.34702 79.3542 2.82736 78.761 2.82736H20.9972C16.7346 2.82736 13.2662 6.29575 13.2662 10.5583V76.9106C13.2662 77.5051 12.7859 77.9855 12.1927 77.9855Z" fill="#DCEEFF"/>
<path d="M85.2042 17.8598H72.3216C71.7284 17.8598 71.248 17.3795 71.248 16.7863V8.19649C71.248 4.05093 74.6187 0.681641 78.7629 0.681641C80.771 0.681641 82.6593 1.4634 84.077 2.88379C85.496 4.3028 86.2791 6.18977 86.2791 8.19649V16.7863C86.2778 17.3795 85.7974 17.8598 85.2042 17.8598ZM73.3938 15.7127H84.1306V8.19786C84.1306 6.76509 83.5705 5.41626 82.5575 4.40327C81.5445 3.38753 80.1957 2.82874 78.7629 2.82874C75.8024 2.82874 73.3952 5.23734 73.3952 8.19786V15.7127H73.3938Z" fill="#DCEEFF"/>
<path d="M55.1406 24.302H40.1081C39.5149 24.302 39.0332 23.8216 39.0332 23.2284C39.0332 22.6366 39.5149 22.1562 40.1081 22.1562H55.1406C55.7338 22.1562 56.2141 22.6366 56.2141 23.2284C56.2141 23.8216 55.7324 24.302 55.1406 24.302Z" fill="#DCEEFF"/>
<path d="M55.141 35.0392H22.9304C22.3372 35.0392 21.8555 34.5588 21.8555 33.9643C21.8555 33.3711 22.3372 32.8921 22.9304 32.8921H55.141C55.7342 32.8921 56.2146 33.3724 56.2146 33.9643C56.2146 34.5575 55.7328 35.0392 55.141 35.0392Z" fill="#DCEEFF"/>
<path d="M55.141 41.4801H22.9304C22.3372 41.4801 21.8555 40.9998 21.8555 40.4066C21.8555 39.8134 22.3372 39.333 22.9304 39.333H55.141C55.7342 39.333 56.2146 39.8134 56.2146 40.4066C56.2146 40.9998 55.7328 41.4801 55.141 41.4801Z" fill="#DCEEFF"/>
<path d="M55.141 47.924H22.9304C22.3372 47.924 21.8555 47.4436 21.8555 46.8504C21.8555 46.2572 22.3372 45.7769 22.9304 45.7769H55.141C55.7342 45.7769 56.2146 46.2586 56.2146 46.8504C56.2146 47.4422 55.7328 47.924 55.141 47.924Z" fill="#DCEEFF"/>
<path d="M55.141 54.3649H22.9304C22.3372 54.3649 21.8555 53.8831 21.8555 53.2913C21.8555 52.6967 22.3372 52.2178 22.9304 52.2178H55.141C55.7342 52.2178 56.2146 52.6981 56.2146 53.2913C56.2146 53.8818 55.7328 54.3649 55.141 54.3649Z" fill="#DCEEFF"/>
<path d="M33.6673 60.8072H22.9304C22.3372 60.8072 21.8555 60.3254 21.8555 59.7336C21.8555 59.1404 22.3372 58.6587 22.9304 58.6587H33.6673C34.2605 58.6587 34.7408 59.1404 34.7408 59.7336C34.7408 60.3254 34.2605 60.8072 33.6673 60.8072Z" fill="#DCEEFF"/>
<path d="M55.1418 69.3933H46.5521C45.9589 69.3933 45.4785 68.913 45.4785 68.3211C45.4785 67.7279 45.9589 67.2476 46.5521 67.2476H55.1418C55.735 67.2476 56.2154 67.7279 56.2154 68.3211C56.2154 68.913 55.7337 69.3933 55.1418 69.3933Z" fill="#DCEEFF"/>
<path d="M12.1933 16.7812C12.097 16.7812 12.0006 16.7826 11.907 16.7854C6.10712 16.9354 1.45508 21.6838 1.45508 27.5181C1.45508 32.422 4.74041 36.5236 9.16811 37.8214C15.9769 39.8474 22.9302 34.7054 22.9302 27.5181C22.9302 21.5888 18.1212 16.7812 12.1933 16.7812Z" fill="white"/>
<path d="M7.89844 37.3594V48.9909L11.9077 44.9816L12.194 44.6967L16.4896 48.9909V37.3594C13.8965 38.5183 10.6305 38.5802 7.89844 37.3594Z" fill="white"/>
<path d="M16.487 50.066C16.2076 50.066 15.9323 49.9573 15.7272 49.7508L12.1914 46.215L8.65555 49.7508C8.34862 50.0591 7.88617 50.1513 7.48428 49.9834C7.08239 49.8169 6.82227 49.4246 6.82227 48.9911V37.3596C6.82227 36.5861 7.62055 36.0617 8.33349 36.3796C8.74502 36.564 9.45108 36.8063 9.89564 36.9054C10.4737 37.0389 10.8343 37.6142 10.7036 38.1909C10.5701 38.7689 9.99474 39.1309 9.41667 38.9974C9.27904 38.9658 9.07534 38.9121 8.96936 38.8804V46.398L11.433 43.9358C11.8514 43.5173 12.53 43.5173 12.9498 43.9358L15.412 46.398V38.8804C15.3418 38.9011 15.0927 38.9685 14.9922 38.9933C14.4169 39.1323 13.8361 38.78 13.6957 38.2019C13.5553 37.6266 13.9104 37.0471 14.4871 36.9068C14.9441 36.7966 15.5882 36.5861 16.0465 36.3796C16.7567 36.0644 17.5605 36.5806 17.5605 37.3596V48.9911C17.5605 49.4246 17.2976 49.8182 16.8985 49.9834C16.765 50.0385 16.6246 50.066 16.487 50.066Z" fill="#DCEEFF"/>
<path d="M0.382812 27.5214C0.382812 24.4218 1.57472 21.4916 3.73834 19.2729C5.8992 17.0598 8.7909 15.7949 11.8794 15.7164C11.9868 15.7123 12.0886 15.7109 12.1946 15.7109C18.7061 15.7109 24.005 21.0085 24.005 27.5227C24.005 33.8071 19.086 38.8748 13.1195 39.296C6.49929 39.8562 0.382812 34.5999 0.382812 27.5214ZM12.1932 17.858C12.1051 17.858 12.0184 17.8594 11.9331 17.8608C6.6617 17.9984 2.52991 22.2417 2.52991 27.5214C2.52991 32.8437 6.8186 37.0649 11.9331 37.1806C17.5114 37.3141 21.8565 32.8382 21.8565 27.5214C21.8565 22.1935 17.5211 17.858 12.1932 17.858Z" fill="#DCEEFF"/>
</svg>
