<svg width="21" height="22" viewBox="0 0 21 22" fill="none" xmlns="http://www.w3.org/2000/svg">
<path d="M19.908 3.91009L19.9081 3.91008C19.6681 3.27505 19.2998 2.70854 18.818 2.23785L18.8111 2.23109L18.8112 2.23102C18.3392 1.75165 17.7678 1.37947 17.1422 1.14401L17.138 1.14243L17.138 1.14241C16.5279 0.906511 15.8226 0.736669 14.7616 0.689889L14.7599 0.689814C13.6533 0.63728 13.3075 0.625 10.4731 0.625C7.63883 0.625 7.29217 0.637272 6.18869 0.685743L19.908 3.91009ZM19.908 3.91009L19.9098 3.91454M19.908 3.91009L19.9098 3.91454M19.9098 3.91454C20.1452 4.51987 20.3151 5.22871 20.3619 6.29026C20.4103 7.39225 20.4145 7.73724 20.4145 10.5746C20.4145 13.4089 20.4023 13.7555 20.3538 14.859C20.307 15.9199 20.137 16.6253 19.9012 17.2358C19.4091 18.5084 18.4027 19.5147 17.1299 20.0068L17.129 20.0072C16.5238 20.2426 15.815 20.4126 14.7534 20.4594C13.65 20.508 13.3034 20.5201 10.4691 20.5201C7.63471 20.5201 7.288 20.508 6.1847 20.4594C5.12355 20.4126 4.41839 20.2428 3.80805 20.0068L3.8039 20.0052C3.17829 19.7698 2.60695 19.3976 2.13492 18.9182L2.13496 18.9182L2.12946 18.9128C1.64971 18.4404 1.27771 17.8729 1.03822 17.2392L1.03824 17.2392M19.9098 3.91454L1.03824 17.2392M3.80865 1.13966L3.80864 1.13964C3.17347 1.37963 2.60697 1.74788 2.13628 2.22964L2.12953 2.23655L2.12946 2.23648C1.65013 2.70847 1.27807 3.27982 1.04241 3.90556L1.04088 3.90961L1.04086 3.90961C0.804942 4.51996 0.635105 5.22512 0.588326 6.28612L0.588252 6.2878C0.535718 7.39443 0.523438 7.7402 0.523438 10.5746C0.523438 13.4089 0.535709 13.7555 0.58418 14.859L3.80865 1.13966ZM3.80865 1.13966L3.81307 1.13794M3.80865 1.13966L3.81307 1.13794M3.81307 1.13794C4.41832 0.90267 5.12717 0.732553 6.18861 0.685747L3.81307 1.13794ZM1.03824 17.2392L1.03651 17.2347M1.03824 17.2392L1.03651 17.2347M1.03651 17.2347C0.801105 16.6293 0.63099 15.9205 0.584184 14.8591L1.03651 17.2347ZM16.8174 19.1883C17.8588 18.7864 18.6849 17.9603 19.0868 16.9189L16.6367 18.7221M16.8174 19.1883C16.8172 19.1884 16.8169 19.1885 16.8166 19.1886L16.6367 18.7221M16.8174 19.1883C16.8176 19.1883 16.8178 19.1882 16.8179 19.1881L16.6367 18.7221M16.8174 19.1883C16.4005 19.3504 15.7918 19.5335 14.7198 19.5807M16.6367 18.7221C16.2693 18.865 15.7143 19.0364 14.6978 19.0812M14.7198 19.5807C14.7199 19.5807 14.72 19.5807 14.7201 19.5807L14.6978 19.0812M14.7198 19.5807L14.6978 19.0812M14.7198 19.5807L14.6978 19.0812M6.23451 19.5807L6.25644 19.0812L6.2341 19.5807C6.23424 19.5807 6.23437 19.5807 6.23451 19.5807ZM4.14028 19.1897C4.14159 19.1902 4.1429 19.1906 4.14421 19.1911L4.31755 18.7221L4.13632 19.1881C4.13764 19.1886 4.13896 19.1892 4.14028 19.1897ZM2.76284 18.2949C2.76463 18.2967 2.76641 18.2984 2.7682 18.3002L3.11754 17.9424L2.75767 18.2896C2.7594 18.2913 2.76112 18.2931 2.76284 18.2949ZM1.87033 16.9198C1.87083 16.9211 1.87133 16.9224 1.87183 16.9236L2.33783 16.7424L1.86884 16.9158C1.86934 16.9171 1.86983 16.9184 1.87033 16.9198ZM1.47925 14.8258L1.97875 14.8035L1.47924 14.8255L1.47925 14.8258ZM19.4793 6.33997C19.432 5.27098 19.2498 4.66274 19.0881 4.24596C18.8956 3.72675 18.5916 3.25893 18.1955 2.87058C17.8089 2.47141 17.3355 2.16772 16.8181 1.97601C16.4016 1.81436 15.7974 1.63211 14.7242 1.5848L19.4793 6.33997ZM1.47924 6.34022L1.97875 6.36215L1.47925 6.33981C1.47925 6.33995 1.47924 6.34009 1.47924 6.34022ZM2.77012 2.86746C2.3659 3.2549 2.0621 3.72865 1.87031 4.24594L6.2384 1.5848C5.16963 1.63209 4.56124 1.81425 4.14445 1.97599C3.62563 2.16818 3.15813 2.47181 2.77012 2.86746ZM10.4812 1.52308C7.69064 1.52308 7.3514 1.53536 6.23849 1.58479L14.724 1.58479C13.6151 1.53536 13.2759 1.52308 10.4812 1.52308Z" fill="white" stroke="#26A1FC"/>
<path d="M5.60547 10.5708C5.60547 7.88344 7.78593 5.70312 10.4731 5.70312C13.1605 5.70312 15.3408 7.88344 15.3408 10.5708C15.3408 13.2582 13.1605 15.4385 10.4731 15.4385C7.78593 15.4385 5.60547 13.2582 5.60547 10.5708ZM6.49127 10.5708C6.49127 12.7696 8.27455 14.5527 10.4731 14.5527C12.6719 14.5527 14.455 12.7696 14.455 10.5708C14.455 8.37203 12.6719 6.58893 10.4731 6.58893C8.27455 6.58893 6.49127 8.37202 6.49127 10.5708Z" fill="white" stroke="#26A1FC"/>
<path d="M16.8052 4.99139C16.8052 5.40721 16.468 5.7445 16.0519 5.7445C15.6361 5.7445 15.2988 5.40725 15.2988 4.99139C15.2988 4.57541 15.636 4.23828 16.0519 4.23828C16.468 4.23828 16.8052 4.57545 16.8052 4.99139Z" fill="white" stroke="#26A1FC"/>
</svg>
