<svg width="126" height="107" viewBox="0 0 126 107" fill="none" xmlns="http://www.w3.org/2000/svg">
<path fill-rule="evenodd" clip-rule="evenodd" d="M64.8187 78.7123V101.691L98.3492 81.5725C98.9516 81.211 99.3202 80.56 99.3202 79.8575V57.369L64.8187 78.7123ZM100.092 52.932L64.19 75.1475C63.5452 75.5465 62.7302 75.5465 62.0854 75.1476L26.2779 52.9939C26.1971 52.9332 26.1108 52.8797 26.0198 52.8342L13.8738 45.3196V44.5267C13.8738 43.4221 14.7693 42.5267 15.8738 42.5267H72.7864C73.7163 42.5267 74.4671 41.7716 74.4671 40.846C74.4671 39.9161 73.7142 39.1631 72.7864 39.1631H12.1953C11.2632 39.1631 10.5102 39.9182 10.5102 40.846V43.2386L8.48891 41.988C7.22525 41.2062 7.22528 39.3682 8.48896 38.5864L62.0854 5.42884C62.7302 5.02993 63.5452 5.02996 64.19 5.42892L117.778 38.5864C119.042 39.3683 119.042 41.2061 117.778 41.9879L100.148 52.8974C100.129 52.9086 100.11 52.9201 100.092 52.932ZM102.686 55.2866L124.609 41.7177C125.105 41.407 125.407 40.8697 125.407 40.2872C125.407 39.7046 125.105 39.1631 124.609 38.8545L64.018 1.36669C63.4765 1.03011 62.7904 1.03011 62.2488 1.36669L1.65767 38.8545C1.16142 39.1631 0.859375 39.7046 0.859375 40.2872C0.859375 40.8697 1.16142 41.4091 1.65767 41.7177L10.5102 47.1973V86.1011C10.5102 87.0267 11.2653 87.7818 12.1953 87.7818C13.123 87.7818 13.8738 87.0267 13.8738 86.0989V49.2794L23.5853 55.2907V81.9355C23.5853 82.5288 23.896 83.0769 24.4031 83.3811L62.1206 106.009C62.4142 106.229 62.7723 106.348 63.1355 106.348C63.429 106.348 63.7267 106.27 64.0007 106.106L101.87 83.3869C102.375 83.0827 102.686 82.5347 102.686 81.9414V55.2866ZM26.9511 57.3731V79.8517C26.9511 80.5542 27.3197 81.2052 27.922 81.5666L58.4238 99.8704C59.7568 100.67 61.4529 99.7101 61.4529 98.1554V78.7153L26.9511 57.3731Z" fill="#DCEEFF"/>
<path d="M64.8187 78.7123L64.5557 78.2871L64.3187 78.4337V78.7123H64.8187ZM64.8187 101.691H64.3187V102.574L65.076 102.12L64.8187 101.691ZM98.3492 81.5725L98.092 81.1437V81.1437L98.3492 81.5725ZM99.3202 57.369H99.8202V56.4718L99.0572 56.9438L99.3202 57.369ZM100.092 52.932L100.355 53.3573L100.363 53.352L100.092 52.932ZM64.19 75.1475L64.4531 75.5727H64.4531L64.19 75.1475ZM62.0854 75.1476L62.3484 74.7224L62.0854 75.1476ZM26.2779 52.9939L25.9776 53.3937L25.9956 53.4072L26.0148 53.4191L26.2779 52.9939ZM26.0198 52.8342L25.7567 53.2594L25.7759 53.2712L25.7961 53.2813L26.0198 52.8342ZM13.8738 45.3196H13.3738V45.5982L13.6108 45.7448L13.8738 45.3196ZM10.5102 43.2386L10.2471 43.6638L11.0102 44.1359V43.2386H10.5102ZM8.48891 41.988L8.75198 41.5628L8.48891 41.988ZM8.48896 38.5864L8.22591 38.1612L8.48896 38.5864ZM62.0854 5.42884L62.3485 5.85405V5.85405L62.0854 5.42884ZM64.19 5.42892L64.453 5.00373L64.453 5.00373L64.19 5.42892ZM117.778 38.5864L117.515 39.0116L117.778 38.5864ZM117.778 41.9879L118.041 42.4131L117.778 41.9879ZM100.148 52.8974L100.403 53.3277L100.411 53.3226L100.148 52.8974ZM102.686 55.2866L102.423 54.8615L102.186 55.0081V55.2866H102.686ZM124.609 41.7177L124.872 42.1428L124.874 42.1414L124.609 41.7177ZM124.609 38.8545L124.873 38.4299L124.872 38.4293L124.609 38.8545ZM64.018 1.36669L63.7541 1.79136L63.7549 1.79189L64.018 1.36669ZM62.2488 1.36669L62.5119 1.79189L62.5127 1.79136L62.2488 1.36669ZM1.65767 38.8545L1.3946 38.4293L1.39366 38.4299L1.65767 38.8545ZM1.65767 41.7177L1.39366 42.1423L1.39451 42.1428L1.65767 41.7177ZM10.5102 47.1973H11.0102V46.9188L10.7734 46.7722L10.5102 47.1973ZM13.8738 49.2794L14.137 48.8542L13.3738 48.3818V49.2794H13.8738ZM23.5853 55.2907H24.0853V55.0122L23.8485 54.8656L23.5853 55.2907ZM24.4031 83.3811L24.1458 83.8098L24.1458 83.8098L24.4031 83.3811ZM62.1206 106.009L62.4207 105.609L62.4 105.594L62.3778 105.58L62.1206 106.009ZM64.0007 106.106L64.2575 106.535L64.258 106.535L64.0007 106.106ZM101.87 83.3869L102.128 83.8157L102.129 83.8152L101.87 83.3869ZM26.9511 57.3731L27.2142 56.9479L26.4511 56.4759V57.3731H26.9511ZM27.922 81.5666L27.6648 81.9954L27.6648 81.9954L27.922 81.5666ZM58.4238 99.8704L58.6811 99.4416L58.4238 99.8704ZM61.4529 78.7153H61.9529V78.4366L61.7159 78.2901L61.4529 78.7153ZM64.3187 78.7123V101.691H65.3187V78.7123H64.3187ZM65.076 102.12L98.6065 82.0012L98.092 81.1437L64.5615 101.262L65.076 102.12ZM98.6065 82.0012C99.3595 81.5494 99.8202 80.7356 99.8202 79.8575H98.8202C98.8202 80.3844 98.5438 80.8726 98.092 81.1437L98.6065 82.0012ZM99.8202 79.8575V57.369H98.8202V79.8575H99.8202ZM65.0817 79.1375L99.5832 57.7942L99.0572 56.9438L64.5557 78.2871L65.0817 79.1375ZM99.8289 52.5068L63.9269 74.7223L64.4531 75.5727L100.355 53.3572L99.8289 52.5068ZM63.9269 74.7223C63.4433 75.0216 62.8321 75.0216 62.3484 74.7224L61.8223 75.5728C62.6283 76.0715 63.6471 76.0714 64.4531 75.5727L63.9269 74.7223ZM62.3484 74.7224L26.5409 52.5686L26.0148 53.4191L61.8223 75.5728L62.3484 74.7224ZM25.7961 53.2813C25.86 53.3133 25.9208 53.351 25.9776 53.3937L26.5781 52.594C26.4735 52.5155 26.3616 52.4461 26.2434 52.387L25.7961 53.2813ZM26.2828 52.409L14.1369 44.8944L13.6108 45.7448L25.7567 53.2594L26.2828 52.409ZM13.3738 44.5267V45.3196H14.3738V44.5267H13.3738ZM15.8738 42.0267C14.4931 42.0267 13.3738 43.146 13.3738 44.5267H14.3738C14.3738 43.6983 15.0454 43.0267 15.8738 43.0267V42.0267ZM72.7864 42.0267H15.8738V43.0267H72.7864V42.0267ZM73.9671 40.846C73.9671 41.4963 73.4393 42.0267 72.7864 42.0267V43.0267C73.9933 43.0267 74.9671 42.0469 74.9671 40.846H73.9671ZM72.7864 39.6631C73.4376 39.6631 73.9671 40.1918 73.9671 40.846H74.9671C74.9671 39.6404 73.9907 38.6631 72.7864 38.6631V39.6631ZM12.1953 39.6631H72.7864V38.6631H12.1953V39.6631ZM11.0102 40.846C11.0102 40.1944 11.5393 39.6631 12.1953 39.6631V38.6631C10.987 38.6631 10.0102 39.6421 10.0102 40.846H11.0102ZM11.0102 43.2386V40.846H10.0102V43.2386H11.0102ZM10.7733 42.8134L8.75198 41.5628L8.22585 42.4132L10.2471 43.6638L10.7733 42.8134ZM8.75198 41.5628C7.80424 40.9765 7.80425 39.5979 8.75202 39.0116L8.22591 38.1612C6.6463 39.1384 6.64627 41.4359 8.22585 42.4132L8.75198 41.5628ZM8.75202 39.0116L62.3485 5.85405L61.8223 5.00364L8.22591 38.1612L8.75202 39.0116ZM62.3485 5.85405C62.8321 5.55487 63.4433 5.55488 63.9269 5.85411L64.453 5.00373C63.6471 4.50503 62.6284 4.50499 61.8223 5.00364L62.3485 5.85405ZM63.9269 5.85411L117.515 39.0116L118.041 38.1613L64.453 5.00373L63.9269 5.85411ZM117.515 39.0116C118.463 39.598 118.463 40.9764 117.515 41.5628L118.041 42.4131C119.621 41.4358 119.621 39.1385 118.041 38.1613L117.515 39.0116ZM117.515 41.5628L99.8848 52.4722L100.411 53.3226L118.041 42.4131L117.515 41.5628ZM100.363 53.352C100.376 53.3436 100.389 53.3355 100.403 53.3276L99.8931 52.4672C99.8686 52.4817 99.8445 52.4966 99.8206 52.512L100.363 53.352ZM102.949 55.7118L124.872 42.1428L124.346 41.2925L102.423 54.8615L102.949 55.7118ZM124.874 42.1414C125.514 41.741 125.907 41.0451 125.907 40.2872H124.907C124.907 40.6943 124.697 41.0729 124.344 41.2939L124.874 42.1414ZM125.907 40.2872C125.907 39.5309 125.515 38.8292 124.873 38.4299L124.345 39.2792C124.695 39.4969 124.907 39.8783 124.907 40.2872H125.907ZM124.872 38.4293L64.2811 0.941495L63.7549 1.79189L124.346 39.2797L124.872 38.4293ZM64.2819 0.942031C63.5788 0.505 62.688 0.505 61.9849 0.942031L62.5127 1.79136C62.8927 1.55522 63.3741 1.55522 63.7541 1.79136L64.2819 0.942031ZM61.9857 0.941495L1.3946 38.4293L1.92074 39.2797L62.5119 1.79189L61.9857 0.941495ZM1.39366 38.4299C0.751445 38.8292 0.359375 39.5309 0.359375 40.2872H1.35938C1.35938 39.8783 1.5714 39.4969 1.92167 39.2792L1.39366 38.4299ZM0.359375 40.2872C0.359375 41.0441 0.752045 41.7434 1.39366 42.1423L1.92167 41.293C1.5708 41.0749 1.35938 40.6953 1.35938 40.2872H0.359375ZM1.39451 42.1428L10.247 47.6225L10.7734 46.7722L1.92083 41.2925L1.39451 42.1428ZM11.0102 86.1011V47.1973H10.0102V86.1011H11.0102ZM12.1953 87.2818C11.5407 87.2818 11.0102 86.7497 11.0102 86.1011H10.0102C10.0102 87.3036 10.99 88.2818 12.1953 88.2818V87.2818ZM13.3738 86.0989C13.3738 86.7522 12.8452 87.2818 12.1953 87.2818V88.2818C13.4008 88.2818 14.3738 87.3012 14.3738 86.0989H13.3738ZM13.3738 49.2794V86.0989H14.3738V49.2794H13.3738ZM13.6107 49.7045L23.3221 55.7158L23.8485 54.8656L14.137 48.8542L13.6107 49.7045ZM24.0853 81.9355V55.2907H23.0853V81.9355H24.0853ZM24.6603 82.9523C24.3039 82.7385 24.0853 82.3533 24.0853 81.9355H23.0853C23.0853 82.7044 23.4881 83.4152 24.1458 83.8098L24.6603 82.9523ZM62.3778 105.58L24.6603 82.9523L24.1458 83.8098L61.8633 106.438L62.3778 105.58ZM63.1355 105.848C62.8802 105.848 62.6275 105.764 62.4207 105.609L61.8205 106.409C62.2009 106.694 62.6643 106.848 63.1355 106.848V105.848ZM63.744 105.677C63.5485 105.794 63.3397 105.848 63.1355 105.848V106.848C63.5183 106.848 63.9049 106.746 64.2575 106.535L63.744 105.677ZM101.613 82.9582L63.7435 105.677L64.258 106.535L102.128 83.8157L101.613 82.9582ZM102.186 81.9414C102.186 82.3594 101.967 82.7449 101.612 82.9587L102.129 83.8152C102.784 83.4205 103.186 82.71 103.186 81.9414H102.186ZM102.186 55.2866V81.9414H103.186V55.2866H102.186ZM26.4511 57.3731V79.8517H27.4511V57.3731H26.4511ZM26.4511 79.8517C26.4511 80.7298 26.9118 81.5435 27.6648 81.9954L28.1793 81.1379C27.7276 80.8668 27.4511 80.3786 27.4511 79.8517H26.4511ZM27.6648 81.9954L58.1665 100.299L58.6811 99.4416L28.1793 81.1379L27.6648 81.9954ZM58.1665 100.299C59.8328 101.299 61.9529 100.099 61.9529 98.1554H60.9529C60.9529 99.3214 59.6809 100.042 58.6811 99.4416L58.1665 100.299ZM61.9529 98.1554V78.7153H60.9529V98.1554H61.9529ZM26.6881 57.7983L61.1899 79.1405L61.7159 78.2901L27.2142 56.9479L26.6881 57.7983Z" fill="white"/>
</svg>
